<svg height="512" viewBox="0 0 57 56" width="512" xmlns="http://www.w3.org/2000/svg"><g id="Page-1" fill="none" fill-rule="evenodd"><g id="072---Search-People" fill="rgb(0,0,0)" fill-rule="nonzero"><path id="Shape" d="m33.5 0c5.2467051 0 9.5 4.25329488 9.5 9.5 0 5.2467051-4.2532949 9.5-9.5 9.5s-9.5-4.2532949-9.5-9.5c.0060617-5.24419223 4.2558078-9.4939383 9.5-9.5z"/><path id="Shape" d="m6 43v-8c0-.5522847-.44771525-1-1-1s-1 .4477153-1 1v8h-3c-.55228475 0-1-.4477153-1-1v-7c.00495988-4.4162219 3.58377808-7.9950401 8-8h7c.6311547.0016345 1.2598851.0781698 1.873.228-1.8544757 2.1647939-2.8735165 4.9214891-2.873 7.772v8zm17.816 4c.1184378-.320257.1806856-.6585603.184-1v-12c0-.5522847-.4477153-1-1-1s-1 .4477153-1 1v12c0 .5522847-.4477153 1-1 1h-4c-.5522847 0-1-.4477153-1-1v-11c.0060624-5.5203344 4.4796656-9.9939376 10-10h8.211c-.035.035-.075.065-.11.1-4.3673896 4.3801421-5.3482598 11.1048318-2.414 16.55l-5.351 5.35zm3.037 8.393c-.853012.8119367-2.192988.8119367-3.046 0-.8360433-.8393299-.8360433-2.1966701 0-3.036l8.99-8.989c.3967188.5415009.8321949 1.0535111 1.303 1.532.5470397.540887 1.1373346 1.0361997 1.765 1.481zm25.632-11.908c-3.4319134 3.432141-8.5933897 4.4589559-13.0775801 2.6016305-4.4841904-1.8573253-7.4079826-6.2330111-7.4079826-11.0866305s2.9237922-9.2293052 7.4079826-11.0866305c4.4841904-1.8573254 9.6456667-.8305105 13.0775801 2.6016305 2.2708204 2.2394479 3.5492247 5.2956816 3.5492247 8.485s-1.2784043 6.2455521-3.5492247 8.485z"/><path id="Shape" d="m11.5 8c3.5898509 0 6.5 2.9101491 6.5 6.5s-2.9101491 6.5-6.5 6.5c-3.58985087 0-6.5-2.9101491-6.5-6.5.0044079-3.5880235 2.91197652-6.4955921 6.5-6.5z"/></g></g></svg>